<svg xmlns="http://www.w3.org/2000/svg" viewBox="0 0 64 64" fill="none">
  <defs>
    <linearGradient id="xj-body" x1="10" y1="10" x2="50" y2="58" gradientUnits="userSpaceOnUse">
      <stop stop-color="#f0abfc" />
      <stop offset="1" stop-color="#a5a8f0" />
    </linearGradient>
  </defs>
  <g transform="rotate(38 50 12)">
    <rect x="45.5" y="1" width="9" height="17" rx="4.5" fill="#7fe3bc" />
    <path d="M45.5 18 H54.5 L50 26.5 Z" fill="#f4a6d8" />
    <path d="M48.6 23.2 H51.4 L50 25.4 Z" fill="#57534e" />
  </g>
  <rect x="8" y="10" width="42" height="48" rx="13" fill="url(#xj-body)" />
  <rect x="4" y="20" width="8" height="5" rx="2.5" fill="#ffffff" opacity="0.85" />
  <rect x="4" y="30" width="8" height="5" rx="2.5" fill="#ffffff" opacity="0.85" />
  <rect x="4" y="40" width="8" height="5" rx="2.5" fill="#ffffff" opacity="0.85" />
  <circle cx="24" cy="32" r="3.2" fill="#ffffff" />
  <circle cx="38" cy="32" r="3.2" fill="#ffffff" />
  <path d="M26 39.5 Q31 44.5 36 39.5" stroke="#ffffff" stroke-width="2.6" stroke-linecap="round" />
  <ellipse cx="17.5" cy="37.5" rx="3.4" ry="2.2" fill="#fda4af" opacity="0.95" />
  <ellipse cx="44.5" cy="37.5" rx="3.4" ry="2.2" fill="#fda4af" opacity="0.95" />
  <path d="M20 49 H29 V58 L24.5 54 L20 58 Z" fill="#7fe3bc" />
</svg>
